<svg width="128" height="128" viewBox="0 0 128 128" fill="none" xmlns="http://www.w3.org/2000/svg">
<path d="M32.9657 38.1952C32.9657 36.3046 32.7373 34.8723 32.2803 33.8984C31.8233 32.9244 30.9379 32.2369 29.624 31.8359C28.3673 31.3776 26.3965 31.1484 23.7117 31.1484V29H54.0444V31.1484C51.4167 31.1484 49.4459 31.3776 48.1321 31.8359C46.8754 32.2369 45.99 32.9244 45.4758 33.8984C45.0189 34.8723 44.7904 36.3046 44.7904 38.1952V76.6949C44.7904 82.3094 44.162 86.7781 42.9053 90.101C41.7057 93.4239 39.9634 95.8301 37.6785 97.3197C35.4506 98.7519 32.7087 99.4681 29.4526 99.4681C24.8827 99.4681 21.4839 98.5801 19.2561 96.804C17.0854 94.9707 16 92.5359 16 89.4994C16 87.7807 16.4856 86.4916 17.4567 85.6323C18.4849 84.7156 19.713 84.2573 21.1411 84.2573C22.6264 84.2573 23.8545 84.6297 24.8256 85.3745C25.7967 86.1193 26.2823 87.2937 26.2823 88.8979C26.2823 89.1843 26.2823 89.4994 26.2823 89.8432C26.2823 90.1296 26.2537 90.4161 26.1966 90.7025C26.1395 92.364 26.2251 93.5957 26.4536 94.3978C26.7393 95.1999 27.4819 95.6009 28.6815 95.6009C29.8811 95.6009 30.795 95.114 31.4234 94.14C32.0518 93.1661 32.4516 91.7051 32.623 89.7572C32.8515 87.752 32.9657 85.0021 32.9657 81.5073V38.1952Z" fill="currentColor"/>
<path d="M57.504 97.7493V95.6009C60.1888 95.6009 62.1595 95.3718 63.4163 94.9134C64.7301 94.4551 65.6155 93.7676 66.0725 92.851C66.5295 91.877 66.758 90.4447 66.758 88.5541V38.1952C66.758 36.3046 66.5295 34.8723 66.0725 33.8984C65.6155 32.9244 64.7301 32.2369 63.4163 31.8359C62.1595 31.3776 60.1888 31.1484 57.504 31.1484V29H87.1512C94.006 29 99.3757 30.4323 103.26 33.2968C107.144 36.1614 109.087 40.4582 109.087 46.1873C109.087 50.8279 107.744 54.5518 105.059 57.3591C102.432 60.1091 98.7759 61.7419 94.0917 62.2575V62.5153C97.7476 62.7445 100.918 63.6038 103.603 65.0934C106.345 66.583 108.43 68.6168 109.858 71.1949C111.286 73.7157 112 76.6089 112 79.8745C112 86.2338 109.686 90.8171 105.059 93.6244C100.432 96.3744 94.1774 97.7493 86.2943 97.7493H57.504ZM78.5826 93.0228C80.5819 93.5957 82.5813 93.8822 84.5806 93.8822C89.0363 93.8822 92.7207 92.7937 95.6341 90.6166C98.5474 88.3823 100.004 84.6297 100.004 79.3589C100.004 75.6923 99.2328 72.7704 97.6905 70.5934C96.1482 68.359 94.206 66.7835 91.8639 65.8668C89.5789 64.8929 87.1512 64.4059 84.5806 64.4059C82.2957 64.4059 80.2963 64.5491 78.5826 64.8356V93.0228ZM78.5826 60.1091C80.2963 60.3955 82.2957 60.5388 84.5806 60.5388C86.9227 60.5388 89.0363 60.0518 90.9213 59.0778C92.8064 58.0466 94.2916 56.4711 95.377 54.3513C96.5195 52.2315 97.0907 49.5962 97.0907 46.4451C97.0907 43.4087 96.5195 40.8879 95.377 38.8827C94.2916 36.8202 92.8064 35.302 90.9213 34.3281C89.0363 33.3541 86.9227 32.8671 84.5806 32.8671C83.381 32.8671 82.3242 32.9244 81.4102 33.039C80.4963 33.1536 79.5537 33.3828 78.5826 33.7265V60.1091Z" fill="currentColor"/>
<style>
        path { fill: #111; }
        @media (prefers-color-scheme: dark) {
            path { fill: #fff; }
        }
    </style>

</svg>

